<?xml version="1.0" encoding="UTF-8" standalone="no"?>
<!-- Created with Inkscape (http://www.inkscape.org/) -->

<svg
   width="633.19073mm"
   height="181.83569mm"
   viewBox="0 0 633.19074 181.83569"
   version="1.1"
   id="svg2099"
   inkscape:version="1.1.2 (0a00cf5, 2022-02-04)"
   sodipodi:docname="sam logo with prerendered text.svg"
   xmlns:inkscape="http://www.inkscape.org/namespaces/inkscape"
   xmlns:sodipodi="http://sodipodi.sourceforge.net/DTD/sodipodi-0.dtd"
   xmlns="http://www.w3.org/2000/svg"
   xmlns:svg="http://www.w3.org/2000/svg">
  <sodipodi:namedview
     id="namedview2101"
     pagecolor="#505050"
     bordercolor="#eeeeee"
     borderopacity="1"
     inkscape:pageshadow="0"
     inkscape:pageopacity="0"
     inkscape:pagecheckerboard="0"
     inkscape:document-units="mm"
     showgrid="false"
     fit-margin-top="0"
     fit-margin-left="0"
     fit-margin-right="0"
     fit-margin-bottom="0"
     inkscape:zoom="0.60221134"
     inkscape:cx="691.61766"
     inkscape:cy="528.8841"
     inkscape:window-width="1878"
     inkscape:window-height="1026"
     inkscape:window-x="0"
     inkscape:window-y="521"
     inkscape:window-maximized="1"
     inkscape:current-layer="text3515-6-1-4-1" />
  <defs
     id="defs2096" />
  <g
     inkscape:label="Layer 1"
     inkscape:groupmode="layer"
     id="layer1"
     transform="translate(78.97723,41.2107)">
    <path
       style="fill:#000000;fill-opacity:0.299415;stroke:none;stroke-width:0.369172px;stroke-linecap:butt;stroke-linejoin:miter;stroke-opacity:1"
       d="M 5.2708,-36.4479 -74.2147,3.4032 v 97.4342 L 5.18267,140.625 85.00072,100.7648 V 3.2909 Z"
       id="path1740-9-3-5-5-7" />
    <path
       id="path2023-7-5-1-2"
       style="fill:#1c1c1c;fill-opacity:0.6;stroke:none;stroke-width:0.444257px;stroke-linecap:butt;stroke-linejoin:miter;stroke-opacity:1"
       d="M 539.17871,59.8051 H 62.65855 l 1.25423,30.2813 h 468.46337 z"
       sodipodi:nodetypes="ccccc" />
    <path
       id="path5187-0-0-5-2"
       style="fill:#1c1c1c;fill-opacity:0.6;stroke:none;stroke-width:0.444257px;stroke-linecap:butt;stroke-linejoin:miter;stroke-opacity:1"
       d="m 59.88636,-7.1185 2.09131,50.4853 h 480.89404 l 11.3418,-50.4853 z"
       sodipodi:nodetypes="ccccc" />
    <path
       style="fill:#4d4d4d;fill-opacity:1;stroke:none;stroke-width:0.369172px;stroke-linecap:butt;stroke-linejoin:miter;stroke-opacity:1"
       d="m 0.50827,-41.2107 -79.4855,39.8511 V 96.0746 L 0.42014,135.8622 80.23819,96.002 V -1.4719 Z"
       id="path1740-9-3-5-6" />
    <g
       aria-label="Silver Age Minecraft"
       id="text3515-6-1-4-1"
       style="font-size:33.0648px;line-height:1.25;font-family:Minecraft;-inkscape-font-specification:Minecraft;stroke-width:0.826621">
      <path
         d="m 104.45372,9.8434547 h 13.22592 v -3.30648 h -16.5324 v 3.30648 h -3.306481 v 3.3064803 h 3.306481 v 3.30648 h 9.91944 v 9.91944 h -6.61296 v -3.30648 h -6.612961 v 3.30648 h 3.306481 v 3.30648 h 13.22592 v -3.30648 h 3.30648 v -9.91944 h -3.30648 v -3.30648 h -9.91944 z"
         style="font-weight:bold;-inkscape-font-specification:'Minecraft Bold';fill:#ffffff"
         id="path14012" />
      <path
         d="m 127.59904,6.5369747 h -6.61296 v 3.30648 h 6.61296 z m -6.61296,6.6129603 v 16.5324 h 6.61296 v -16.5324 z"
         style="font-weight:bold;-inkscape-font-specification:'Minecraft Bold';fill:#ffffff"
         id="path14014" />
      <path
         d="M 137.51845,26.375855 V 6.5369747 h -6.61296 V 26.375855 h 3.30648 v 3.30648 h 6.61296 v -3.30648 z"
         style="font-weight:bold;-inkscape-font-specification:'Minecraft Bold';fill:#ffffff"
         id="path14016" />
      <path
         d="m 163.97029,13.149935 h -6.61297 v 9.91944 h -6.61296 v -9.91944 h -6.61296 v 9.91944 h 3.30648 v 3.30648 h 3.30648 v 3.30648 h 6.61296 v -3.30648 h 3.30649 v -3.30648 h 3.30648 z"
         style="font-weight:bold;-inkscape-font-specification:'Minecraft Bold';fill:#ffffff"
         id="path14018" />
      <path
         d="m 183.80913,16.456415 v -3.30648 h -13.22592 v 3.30648 h -3.30648 v 9.91944 h 3.30648 v 3.30648 h 16.5324 v -3.30648 h -13.22592 v -3.30648 h 13.22592 v -6.61296 z m -3.30648,3.30648 h -6.61296 v -3.30648 h 6.61296 z"
         style="font-weight:bold;-inkscape-font-specification:'Minecraft Bold';fill:#ffffff"
         id="path14020" />
      <path
         d="m 206.95445,16.456415 v -3.30648 h -16.5324 v 16.5324 h 6.61296 v -9.91944 h 3.30648 v -3.30648 h 3.30648 v 3.30648 h 6.61296 v -3.30648 z"
         style="font-weight:bold;-inkscape-font-specification:'Minecraft Bold';fill:#ffffff"
         id="path14022" />
      <path
         d="m 243.32567,9.8434547 v -3.30648 h -13.22592 v 3.30648 h -3.30648 V 29.682335 h 6.61296 v -13.22592 h 6.61296 v 13.22592 h 6.61296 V 9.8434547 Z m -3.30648,3.3064803 h -6.61296 V 9.8434547 h 6.61296 z"
         style="font-weight:bold;-inkscape-font-specification:'Minecraft Bold';fill:#ffffff"
         id="path14024" />
      <path
         d="m 269.77748,13.149935 h -16.5324 v 3.30648 h -3.30648 v 6.61296 h 3.30648 v 3.30648 h 9.91944 v 3.30648 H 249.9386 v 3.30648 h 16.5324 v -3.30648 h 3.30648 z m -6.61296,9.91944 h -6.61296 v -6.61296 h 6.61296 z"
         style="font-weight:bold;-inkscape-font-specification:'Minecraft Bold';fill:#ffffff"
         id="path14026" />
      <path
         d="m 289.61632,16.456415 v -3.30648 H 276.3904 v 3.30648 h -3.30648 v 9.91944 h 3.30648 v 3.30648 h 16.5324 v -3.30648 h -13.22592 v -3.30648 h 13.22592 v -6.61296 z m -3.30648,3.30648 h -6.61296 v -3.30648 h 6.61296 z"
         style="font-weight:bold;-inkscape-font-specification:'Minecraft Bold';fill:#ffffff"
         id="path14028" />
      <path
         d="m 329.29403,6.5369747 h -6.61296 v 3.30648 h -6.61296 v -3.30648 h -6.61296 V 29.682335 h 6.61296 v -13.22592 h 6.61296 v 13.22592 h 6.61296 z"
         style="font-weight:bold;-inkscape-font-specification:'Minecraft Bold';fill:#ffffff"
         id="path14030" />
      <path
         d="m 339.21344,6.5369747 h -6.61296 v 3.30648 h 6.61296 z m -6.61296,6.6129603 v 16.5324 h 6.61296 v -16.5324 z"
         style="font-weight:bold;-inkscape-font-specification:'Minecraft Bold';fill:#ffffff"
         id="path14032" />
      <path
         d="m 359.0523,16.456415 v -3.30648 h -16.5324 v 16.5324 h 6.61296 v -13.22592 h 6.61296 v 13.22592 h 6.61296 v -13.22592 z"
         style="font-weight:bold;-inkscape-font-specification:'Minecraft Bold';fill:#ffffff"
         id="path14034" />
      <path
         d="m 382.19762,16.456415 v -3.30648 H 368.9717 v 3.30648 h -3.30648 v 9.91944 h 3.30648 v 3.30648 h 16.5324 v -3.30648 h -13.22592 v -3.30648 h 13.22592 v -6.61296 z m -3.30648,3.30648 h -6.61296 v -3.30648 h 6.61296 z"
         style="font-weight:bold;-inkscape-font-specification:'Minecraft Bold';fill:#ffffff"
         id="path14036" />
      <path
         d="m 402.03647,19.762895 h 6.61296 v -3.30648 h -3.30648 v -3.30648 h -13.22592 v 3.30648 h -3.30648 v 9.91944 h 3.30648 v 3.30648 h 13.22592 v -3.30648 h 3.30648 v -3.30648 h -6.61296 v 3.30648 h -6.61296 v -9.91944 h 6.61296 z"
         style="font-weight:bold;-inkscape-font-specification:'Minecraft Bold';fill:#ffffff"
         id="path14038" />
      <path
         d="m 428.48827,16.456415 v -3.30648 h -16.5324 v 16.5324 h 6.61296 v -9.91944 h 3.30648 v -3.30648 h 3.30648 v 3.30648 h 6.61296 v -3.30648 z"
         style="font-weight:bold;-inkscape-font-specification:'Minecraft Bold';fill:#ffffff"
         id="path14040" />
      <path
         d="m 451.6336,16.456415 v -3.30648 h -13.22592 v 3.30648 h 9.91944 v 3.30648 h -9.91944 v 3.30648 h -3.30648 v 3.30648 h 3.30648 v 3.30648 h 16.5324 v -13.22592 z m -3.30648,9.91944 h -6.61296 v -3.30648 h 6.61296 z"
         style="font-weight:bold;-inkscape-font-specification:'Minecraft Bold';fill:#ffffff"
         id="path14042" />
      <path
         d="m 468.16596,9.8434547 h 6.61296 v -3.30648 h -9.91944 v 3.30648 H 461.553 v 3.3064803 h -3.30648 v 3.30648 h 3.30648 v 13.22592 h 6.61296 v -13.22592 h 6.61296 v -3.30648 h -6.61296 z"
         style="font-weight:bold;-inkscape-font-specification:'Minecraft Bold';fill:#ffffff"
         id="path14044" />
      <path
         d="m 488.00477,26.375855 v -9.91944 h 3.30648 v -3.30648 h -3.30648 V 6.5369747 h -6.61296 v 6.6129603 h -3.30648 v 3.30648 h 3.30648 v 9.91944 h 3.30648 v 3.30648 h 6.61296 v -3.30648 z"
         style="font-weight:bold;-inkscape-font-specification:'Minecraft Bold';fill:#ffffff"
         id="path14046" />
    </g>
    <g
       aria-label="Unofficial Fansite for Minecraft's Middle Era"
       id="text3515-1-6-6-6-6"
       style="font-size:18.8171px;line-height:1.25;font-family:Minecraft;-inkscape-font-specification:Minecraft;stroke-width:0.470429">
      <path
         d="m 99.722469,79.690395 v -11.29026 h -1.88171 v 11.29026 z m 5.645131,-11.29026 v 11.29026 h 1.88171 v -11.29026 z m 0,11.29026 h -5.645131 v 1.88171 h 5.645131 z"
         style="fill:#ffff00"
         id="path13931" />
      <path
         d="m 116.65783,72.163555 h -7.52684 v 9.40855 h 1.88171 v -7.52684 h 5.64513 z m 0,1.88171 v 7.52684 h 1.88171 v -7.52684 z"
         style="fill:#ffff00"
         id="path13933" />
      <path
         d="m 122.30293,74.045265 h 5.64513 v -1.88171 h -5.64513 z m 0,5.64513 v -5.64513 h -1.88171 v 5.64513 z m 5.64513,-5.64513 v 5.64513 h 1.88171 v -5.64513 z m 0,5.64513 h -5.64513 v 1.88171 h 5.64513 z"
         style="fill:#ffff00"
         id="path13935" />
      <path
         d="m 139.2383,70.281845 v -1.88171 h -3.76342 v 1.88171 z m -5.64513,0 v 1.88171 h -1.88171 v 1.88171 h 1.88171 v 7.52684 h 1.88171 v -7.52684 h 3.76342 v -1.88171 h -3.76342 v -1.88171 z"
         style="fill:#ffff00"
         id="path13937" />
      <path
         d="m 148.64681,70.281845 v -1.88171 h -3.76342 v 1.88171 z m -5.64513,0 v 1.88171 h -1.88171 v 1.88171 h 1.88171 v 7.52684 h 1.88171 v -7.52684 h 3.76342 v -1.88171 h -3.76342 v -1.88171 z"
         style="fill:#ffff00"
         id="path13939" />
      <path
         d="m 150.52848,68.400135 v 1.88171 h 1.88171 v -1.88171 z m 0,3.76342 v 9.40855 h 1.88171 v -9.40855 z"
         style="fill:#ffff00"
         id="path13941" />
      <path
         d="m 161.81872,72.163555 h -5.64513 v 1.88171 h 5.64513 z m -7.52684,1.88171 v 5.64513 h 1.88171 v -5.64513 z m 9.40855,1.88171 v -1.88171 h -1.88171 v 1.88171 z m 0,1.88171 h -1.88171 v 1.88171 h 1.88171 z m -7.52684,3.76342 h 5.64513 v -1.88171 h -5.64513 z"
         style="fill:#ffff00"
         id="path13943" />
      <path
         d="m 165.58212,68.400135 v 1.88171 h 1.88171 v -1.88171 z m 0,3.76342 v 9.40855 h 1.88171 v -9.40855 z"
         style="fill:#ffff00"
         id="path13945" />
      <path
         d="m 176.87235,72.163555 h -5.64513 v 1.88171 h 5.64513 z m 0,1.88171 v 1.88171 h -5.64513 v 1.88171 h 5.64513 v 1.88171 h -5.64513 v 1.88171 h 7.52684 v -7.52684 z m -7.52684,3.76342 v 1.88171 h 1.88171 v -1.88171 z"
         style="fill:#ffff00"
         id="path13947" />
      <path
         d="m 182.51745,79.690395 v -11.29026 h -1.88171 v 11.29026 z m 0,0 v 1.88171 h 1.88171 v -1.88171 z"
         style="fill:#ffff00"
         id="path13949" />
      <path
         d="m 203.21624,68.400135 h -9.40855 v 13.17197 h 1.88171 v -7.52684 h 3.76342 v -1.88171 h -3.76342 v -1.88171 h 7.52684 z"
         style="fill:#ffff00"
         id="path13951" />
      <path
         d="m 212.62476,72.163555 h -5.64513 v 1.88171 h 5.64513 z m 0,1.88171 v 1.88171 h -5.64513 v 1.88171 h 5.64513 v 1.88171 h -5.64513 v 1.88171 h 7.52684 v -7.52684 z m -7.52684,3.76342 v 1.88171 h 1.88171 v -1.88171 z"
         style="fill:#ffff00"
         id="path13953" />
      <path
         d="m 223.91499,72.163555 h -7.52684 v 9.40855 h 1.88171 v -7.52684 h 5.64513 z m 0,1.88171 v 7.52684 h 1.88171 v -7.52684 z"
         style="fill:#ffff00"
         id="path13955" />
      <path
         d="m 229.5601,74.045265 h 7.52684 v -1.88171 h -7.52684 z m -1.88171,0 v 1.88171 h 1.88171 v -1.88171 z m 1.88171,3.76342 h 5.64513 v -1.88171 h -5.64513 z m 7.52684,1.88171 v -1.88171 h -1.88171 v 1.88171 z m -1.88171,0 h -7.52684 v 1.88171 h 7.52684 z"
         style="fill:#ffff00"
         id="path13957" />
      <path
         d="m 238.96861,68.400135 v 1.88171 h 1.88171 v -1.88171 z m 0,3.76342 v 9.40855 h 1.88171 v -9.40855 z"
         style="fill:#ffff00"
         id="path13959" />
      <path
         d="m 246.49545,79.690395 v -5.64513 h 1.88171 v -1.88171 h -1.88171 v -3.76342 h -1.88171 v 3.76342 h -1.88171 v 1.88171 h 1.88171 v 5.64513 z m 1.88171,1.88171 v -1.88171 h -1.88171 v 1.88171 z"
         style="fill:#ffff00"
         id="path13961" />
      <path
         d="m 252.14056,74.045265 h 5.64513 v -1.88171 h -5.64513 z m 5.64513,0 v 1.88171 h -5.64513 v -1.88171 h -1.88171 v 5.64513 h 1.88171 v -1.88171 h 7.52684 v -3.76342 z m -5.64513,7.52684 h 7.52684 v -1.88171 h -7.52684 z"
         style="fill:#ffff00"
         id="path13963" />
      <path
         d="m 276.60275,70.281845 v -1.88171 h -3.76342 v 1.88171 z m -5.64513,0 v 1.88171 h -1.88171 v 1.88171 h 1.88171 v 7.52684 h 1.88171 v -7.52684 h 3.76342 v -1.88171 h -3.76342 v -1.88171 z"
         style="fill:#ffff00"
         id="path13965" />
      <path
         d="m 280.36615,74.045265 h 5.64513 v -1.88171 h -5.64513 z m 0,5.64513 v -5.64513 h -1.88171 v 5.64513 z m 5.64513,-5.64513 v 5.64513 h 1.88171 v -5.64513 z m 0,5.64513 h -5.64513 v 1.88171 h 5.64513 z"
         style="fill:#ffff00"
         id="path13967" />
      <path
         d="m 291.65637,72.163555 h -1.88171 v 9.40855 h 1.88171 v -5.64513 h 1.88171 v -1.88171 h -1.88171 z m 5.64513,0 h -3.76342 v 1.88171 h 3.76342 z m 0,1.88171 v 1.88171 h 1.88171 v -1.88171 z"
         style="fill:#ffff00"
         id="path13969" />
      <path
         d="m 310.47343,70.281845 v -1.88171 h -1.88171 v 13.17197 h 1.88171 v -9.40855 h 1.88171 v -1.88171 z m 5.64513,-1.88171 v 1.88171 h -1.88171 v 1.88171 h 1.88171 v 9.40855 h 1.88171 v -13.17197 z m -3.76342,5.64513 h 1.88171 v -1.88171 h -1.88171 z"
         style="fill:#ffff00"
         id="path13971" />
      <path
         d="m 319.88196,68.400135 v 1.88171 h 1.88171 v -1.88171 z m 0,3.76342 v 9.40855 h 1.88171 v -9.40855 z"
         style="fill:#ffff00"
         id="path13973" />
      <path
         d="m 331.1722,72.163555 h -7.52684 v 9.40855 h 1.88171 v -7.52684 h 5.64513 z m 0,1.88171 v 7.52684 h 1.88171 v -7.52684 z"
         style="fill:#ffff00"
         id="path13975" />
      <path
         d="m 336.8173,74.045265 h 5.64513 v -1.88171 h -5.64513 z m 5.64513,0 v 1.88171 h -5.64513 v -1.88171 h -1.88171 v 5.64513 h 1.88171 v -1.88171 h 7.52684 v -3.76342 z m -5.64513,7.52684 h 7.52684 v -1.88171 h -7.52684 z"
         style="fill:#ffff00"
         id="path13977" />
      <path
         d="m 353.75266,72.163555 h -5.64514 v 1.88171 h 5.64514 z m -7.52685,1.88171 v 5.64513 h 1.88171 v -5.64513 z m 9.40856,1.88171 v -1.88171 h -1.88171 v 1.88171 z m 0,1.88171 h -1.88171 v 1.88171 h 1.88171 z m -7.52685,3.76342 h 5.64514 v -1.88171 h -5.64514 z"
         style="fill:#ffff00"
         id="path13979" />
      <path
         d="m 359.39776,72.163555 h -1.88171 v 9.40855 h 1.88171 v -5.64513 h 1.88171 v -1.88171 h -1.88171 z m 5.64513,0 h -3.76342 v 1.88171 h 3.76342 z m 0,1.88171 v 1.88171 h 1.88171 v -1.88171 z"
         style="fill:#ffff00"
         id="path13981" />
      <path
         d="m 376.33311,72.163555 h -5.64513 v 1.88171 h 5.64513 z m 0,1.88171 v 1.88171 h -5.64513 v 1.88171 h 5.64513 v 1.88171 h -5.64513 v 1.88171 h 7.52684 v -7.52684 z m -7.52684,3.76342 v 1.88171 h 1.88171 v -1.88171 z"
         style="fill:#ffff00"
         id="path13983" />
      <path
         d="m 387.62337,70.281845 v -1.88171 h -3.76342 v 1.88171 z m -5.64513,0 v 1.88171 h -1.88171 v 1.88171 h 1.88171 v 7.52684 h 1.88171 v -7.52684 h 3.76342 v -1.88171 h -3.76342 v -1.88171 z"
         style="fill:#ffff00"
         id="path13985" />
      <path
         d="m 393.26846,79.690395 v -5.64513 h 1.88171 v -1.88171 h -1.88171 v -3.76342 h -1.88171 v 3.76342 h -1.88171 v 1.88171 h 1.88171 v 5.64513 z m 1.88171,1.88171 v -1.88171 h -1.88171 v 1.88171 z"
         style="fill:#ffff00"
         id="path13987" />
      <path
         d="m 398.91357,68.400135 v 3.76342 h 1.88171 v -3.76342 z m -1.88171,5.64513 h 1.88171 v -1.88171 h -1.88171 z"
         style="fill:#ffff00"
         id="path13989" />
      <path
         d="m 404.55868,74.045265 h 7.52684 v -1.88171 h -7.52684 z m -1.88171,0 v 1.88171 h 1.88171 v -1.88171 z m 1.88171,3.76342 h 5.64513 v -1.88171 h -5.64513 z m 7.52684,1.88171 v -1.88171 h -1.88171 v 1.88171 z m -1.88171,0 h -7.52684 v 1.88171 h 7.52684 z"
         style="fill:#ffff00"
         id="path13991" />
      <path
         d="m 423.37576,70.281845 v -1.88171 h -1.88171 v 13.17197 h 1.88171 v -9.40855 h 1.88171 v -1.88171 z m 5.64513,-1.88171 v 1.88171 h -1.88171 v 1.88171 h 1.88171 v 9.40855 h 1.88171 v -13.17197 z m -3.76342,5.64513 h 1.88171 v -1.88171 h -1.88171 z"
         style="fill:#ffff00"
         id="path13993" />
      <path
         d="m 432.78427,68.400135 v 1.88171 h 1.88171 v -1.88171 z m 0,3.76342 v 9.40855 h 1.88171 v -9.40855 z"
         style="fill:#ffff00"
         id="path13995" />
      <path
         d="m 444.07451,68.400135 v 5.64513 h -1.88171 v 1.88171 h 1.88171 v 3.76342 h -5.64513 v 1.88171 h 7.52684 v -13.17197 z m -1.88171,5.64513 v -1.88171 h -3.76342 v 1.88171 z m -3.76342,5.64513 v -5.64513 h -1.88171 v 5.64513 z"
         style="fill:#ffff00"
         id="path13997" />
      <path
         d="m 455.36473,68.400135 v 5.64513 h -1.88171 v 1.88171 h 1.88171 v 3.76342 h -5.64513 v 1.88171 h 7.52684 v -13.17197 z m -1.88171,5.64513 v -1.88171 h -3.76342 v 1.88171 z m -3.76342,5.64513 v -5.64513 h -1.88171 v 5.64513 z"
         style="fill:#ffff00"
         id="path13999" />
      <path
         d="m 461.00985,79.690395 v -11.29026 h -1.88171 v 11.29026 z m 0,0 v 1.88171 h 1.88171 v -1.88171 z"
         style="fill:#ffff00"
         id="path14001" />
      <path
         d="m 466.65496,74.045265 h 5.64513 v -1.88171 h -5.64513 z m 5.64513,0 v 1.88171 h -5.64513 v -1.88171 h -1.88171 v 5.64513 h 1.88171 v -1.88171 h 7.52684 v -3.76342 z m -5.64513,7.52684 h 7.52684 v -1.88171 h -7.52684 z"
         style="fill:#ffff00"
         id="path14003" />
      <path
         d="m 485.47204,70.281845 h 7.52684 v -1.88171 h -9.40855 v 13.17197 h 9.40855 v -1.88171 h -7.52684 v -5.64513 h 3.76342 v -1.88171 h -3.76342 z"
         style="fill:#ffff00"
         id="path14005" />
      <path
         d="m 496.76226,72.163555 h -1.88171 v 9.40855 h 1.88171 v -5.64513 h 1.88171 v -1.88171 h -1.88171 z m 5.64513,0 h -3.76342 v 1.88171 h 3.76342 z m 0,1.88171 v 1.88171 h 1.88171 v -1.88171 z"
         style="fill:#ffff00"
         id="path14007" />
      <path
         d="m 513.69762,72.163555 h -5.64513 v 1.88171 h 5.64513 z m 0,1.88171 v 1.88171 h -5.64513 v 1.88171 h 5.64513 v 1.88171 h -5.64513 v 1.88171 h 7.52684 v -7.52684 z m -7.52684,3.76342 v 1.88171 h 1.88171 v -1.88171 z"
         style="fill:#ffff00"
         id="path14009" />
    </g>
    <path
       style="fill:#595959;fill-opacity:1;stroke:none;stroke-width:0.309475px;stroke-linecap:butt;stroke-linejoin:miter;stroke-opacity:1"
       d="M 0.52814,-26.8939 -66.1043,6.5131 V 88.1919 L 0.45426,121.5458 67.36548,88.1311 V 6.419 Z"
       id="path1740-9-3-5-4-5" />
    <g
       id="g20232-0-9"
       transform="translate(-455.6544,-740.13888)">
      <path
         style="fill:#838383;fill-opacity:1;stroke:none;stroke-width:0.265;stroke-linecap:butt;stroke-linejoin:miter;stroke-miterlimit:4;stroke-dasharray:none;stroke-opacity:1"
         d="m 456.22864,723.96191 -57.74845,28.74217 57.83382,28.14984 57.83383,-28.14984 z"
         id="path10012-6-7-4-1"
         sodipodi:nodetypes="ccccc" />
      <path
         style="fill:#6d6d6d;fill-opacity:1;stroke:none;stroke-width:0.265;stroke-linecap:butt;stroke-linejoin:miter;stroke-miterlimit:4;stroke-dasharray:none;stroke-opacity:1"
         d="m 398.48019,822.07127 v -69.36719 l 57.83382,28.14984 v 70.11376 z"
         id="path10012-7-1-4-8-7"
         sodipodi:nodetypes="ccccc" />
      <path
         style="fill:#525252;fill-opacity:1;stroke:none;stroke-width:0.265;stroke-linecap:butt;stroke-linejoin:miter;stroke-miterlimit:4;stroke-dasharray:none;stroke-opacity:1"
         d="m 514.14784,822.07127 v -69.36719 l -57.83383,28.14984 v 70.11376 z"
         id="path10012-7-5-2-4-7-7"
         sodipodi:nodetypes="ccccc" />
      <path
         style="fill:#000000;fill-opacity:0.398909;stroke:none;stroke-width:0.265;stroke-linecap:butt;stroke-linejoin:miter;stroke-miterlimit:4;stroke-dasharray:none;stroke-opacity:1"
         d="m 456.22864,723.96191 -57.74845,28.74217 57.83382,28.14984 57.83383,-28.14984 z"
         id="path10012-6-4-1-1"
         sodipodi:nodetypes="ccccc" />
      <path
         style="fill:#000000;fill-opacity:0.213167;stroke:none;stroke-width:0.264836px;stroke-linecap:butt;stroke-linejoin:miter;stroke-opacity:1"
         d="m 398.42201,765.49579 h 0.0867 l 3.25133,1.51299 0.10245,-4.06156 3.88285,1.92239 0.0124,3.96302 6.92206,3.54862 0.0166,4.37311 3.88791,2.01497 -0.0851,-13.18973 3.50001,1.67565 -0.003,8.73032 3.83263,1.84504 0.0904,-4.22189 3.49106,1.69679 -0.0281,8.64332 3.25729,1.54297 0.0593,-4.32274 3.9357,1.87291 0.058,4.34382 3.36531,1.78162 0.0528,-4.23372 3.3867,1.25141 0.0253,-3.93703 4.01496,1.89745 -0.0263,4.08217 7.3343,3.67291 -0.005,-3.97444 3.44934,1.40492 0.0245,-8.47718 -57.83296,-28.14984 z"
         id="path17924-7-1" />
      <path
         style="fill:#000000;fill-opacity:0.213167;stroke:none;stroke-width:0.26488px;stroke-linecap:butt;stroke-linejoin:miter;stroke-opacity:1"
         d="m 456.25484,793.70737 0.0866,-0.0844 3.25139,-1.65216 0.10246,-4.1626 3.88291,-1.8575 0.0124,3.95222 7.36838,-3.43765 0.0167,4.3583 3.44179,-1.52205 -0.0852,-13.11101 3.50007,-1.73158 -0.003,8.73604 3.8327,-1.88597 0.0904,-4.31126 3.49112,-1.70172 -0.0281,8.67341 3.25735,-1.62797 0.0592,-4.3818 3.93577,-1.95846 0.0581,4.28868 3.51396,-1.71732 0.0527,-4.28643 3.79179,-1.86394 0.0252,-3.9629 3.46141,-1.96986 -0.0263,4.10906 7.33443,-3.46691 -0.005,-3.97076 3.4494,-1.95306 0.0245,-8.50367 -57.83396,28.14982 z"
         id="path17924-5-2-5"
         inkscape:transform-center-x="-28.858941"
         inkscape:transform-center-y="-7.6771038"
         sodipodi:nodetypes="cccccccccccccccccccccccccccccccc" />
    </g>
    <path
       id="path14666-4"
       style="fill:#ffffff;fill-opacity:0.059503;stroke:none;stroke-width:0.369173px;stroke-linecap:butt;stroke-linejoin:miter;stroke-opacity:1"
       d="M 74.29768,-4.4329 -13.97549,128.6483 0.42002,135.8624 1.33469,135.4055 80.2384,16.4495 V -1.4719 Z" />
    <path
       id="path14581-9"
       style="fill:#ffffff;fill-opacity:0.059503;stroke:none;stroke-width:0.369173px;stroke-linecap:butt;stroke-linejoin:miter;stroke-opacity:1"
       d="m 59.92232,-11.5979 -88.25404,133.0518 5.47253,2.7425 88.26077,-133.0632 z" />
    <path
       id="path14496-0"
       style="fill:#ffffff;fill-opacity:0.059503;stroke:none;stroke-width:0.369173px;stroke-linecap:butt;stroke-linejoin:miter;stroke-opacity:1"
       d="M -4.68303,-38.6081 -78.9772,73.3985 V 96.0746 L -56.79975,107.1881 31.41554,-25.8058 0.50838,-41.2106 Z" />
  </g>
</svg>
